<svg width="48" height="48" viewBox="0 0 48 48" fill="none" xmlns="http://www.w3.org/2000/svg">
<rect width="48" height="48" rx="24" fill="#FFEBEE"/>
<path d="M23.9992 21.2493V24.916M23.9992 28.5827H24.0084M32.9187 29.4996L25.5854 16.6662C25.4255 16.3841 25.1936 16.1494 24.9134 15.9861C24.6332 15.8228 24.3147 15.7368 23.9904 15.7368C23.6661 15.7368 23.3476 15.8228 23.0674 15.9861C22.7872 16.1494 22.5553 16.3841 22.3954 16.6662L15.0621 29.4996C14.9004 29.7795 14.8157 30.0971 14.8164 30.4204C14.8171 30.7436 14.9033 31.0609 15.0661 31.3401C15.229 31.6193 15.4628 31.8504 15.7438 32.0101C16.0248 32.1699 16.343 32.2525 16.6662 32.2496H31.3329C31.6546 32.2492 31.9705 32.1643 32.2489 32.0032C32.5274 31.8422 32.7585 31.6107 32.9192 31.3321C33.0799 31.0534 33.1644 30.7374 33.1644 30.4158C33.1643 30.0941 33.0796 29.7781 32.9187 29.4996Z" stroke="#D32F2F" stroke-width="2" stroke-linecap="round"/>
</svg>
