<svg width="36" height="36" viewBox="0 0 36 36" fill="none" xmlns="http://www.w3.org/2000/svg">
<rect width="36" height="36" rx="18" fill="#F7F8F6"/>
<g clip-path="url(#clip0_116_60)">
<path d="M25.35 16.5001C25.6925 18.1811 25.4484 19.9287 24.6584 21.4515C23.8683 22.9742 22.5801 24.1802 21.0086 24.8681C19.4371 25.5561 17.6772 25.6845 16.0224 25.2319C14.3677 24.7793 12.9181 23.7732 11.9154 22.3812C10.9127 20.9892 10.4176 19.2955 10.5125 17.5827C10.6074 15.8698 11.2866 14.2412 12.437 12.9685C13.5873 11.6958 15.1392 10.8559 16.8338 10.589C18.5284 10.322 20.2633 10.644 21.7492 11.5014M15.7495 17.2498L17.9995 19.4998L25.4995 11.9998" stroke="#1B5E3A" stroke-width="1.5" stroke-linecap="round"/>
</g>
<defs>
<clipPath id="clip0_116_60">
<rect width="18" height="18" fill="white" transform="translate(9 9)"/>
</clipPath>
</defs>
</svg>
