<svg width="70" height="48" viewBox="0 0 70 48" fill="none" xmlns="http://www.w3.org/2000/svg">
<path d="M42.0006 26V24C42.0006 22.9391 41.5791 21.9217 40.8289 21.1716C40.0787 20.4214 39.0612 20 38.0002 20H31.9995C30.9385 20 29.921 20.4214 29.1707 21.1716C28.4205 21.9217 27.999 22.9391 27.999 24V26M39.0003 12C39.0003 14.2091 37.2092 16 34.9998 16C32.7904 16 30.9994 14.2091 30.9994 12C30.9994 9.79086 32.7904 8 34.9998 8C37.2092 8 39.0003 9.79086 39.0003 12Z" stroke="#5B6B61" stroke-width="1.5" stroke-linecap="round"/>
<path d="M20.299 41V33.7273H22.8913C23.4571 33.7273 23.9259 33.8303 24.2976 34.0362C24.6693 34.2422 24.9474 34.5239 25.1321 34.8814C25.3168 35.2365 25.4091 35.6366 25.4091 36.0817C25.4091 36.5291 25.3156 36.9316 25.1286 37.2891C24.9439 37.6442 24.6645 37.9259 24.2905 38.1342C23.9188 38.3402 23.4512 38.4432 22.8878 38.4432H21.1051V37.5128H22.7884C23.1458 37.5128 23.4358 37.4512 23.6584 37.3281C23.8809 37.2027 24.0443 37.0322 24.1484 36.8168C24.2526 36.6013 24.3047 36.3563 24.3047 36.0817C24.3047 35.8071 24.2526 35.5632 24.1484 35.3501C24.0443 35.1371 23.8797 34.9702 23.6548 34.8494C23.4323 34.7287 23.1387 34.6683 22.7741 34.6683H21.3963V41H20.299ZM26.6103 41V35.5455H27.6365V36.4119H27.6934C27.7928 36.1184 27.968 35.8875 28.2189 35.7195C28.4722 35.549 28.7587 35.4638 29.0783 35.4638C29.1446 35.4638 29.2227 35.4661 29.3127 35.4709C29.405 35.4756 29.4772 35.4815 29.5293 35.4886V36.5043C29.4867 36.4924 29.4109 36.4794 29.302 36.4652C29.1931 36.4486 29.0842 36.4403 28.9753 36.4403C28.7244 36.4403 28.5007 36.4936 28.3042 36.6001C28.11 36.7043 27.9561 36.8499 27.8425 37.0369C27.7289 37.2216 27.6721 37.4323 27.6721 37.669V41H26.6103ZM32.5504 41.1101C32.0391 41.1101 31.5928 40.9929 31.2116 40.7585C30.8305 40.5241 30.5346 40.1963 30.3239 39.7749C30.1132 39.3535 30.0078 38.861 30.0078 38.2976C30.0078 37.7318 30.1132 37.237 30.3239 36.8132C30.5346 36.3894 30.8305 36.0604 31.2116 35.826C31.5928 35.5916 32.0391 35.4744 32.5504 35.4744C33.0618 35.4744 33.508 35.5916 33.8892 35.826C34.2704 36.0604 34.5663 36.3894 34.777 36.8132C34.9877 37.237 35.093 37.7318 35.093 38.2976C35.093 38.861 34.9877 39.3535 34.777 39.7749C34.5663 40.1963 34.2704 40.5241 33.8892 40.7585C33.508 40.9929 33.0618 41.1101 32.5504 41.1101ZM32.554 40.2188C32.8854 40.2188 33.16 40.1312 33.3778 39.956C33.5956 39.7808 33.7566 39.5476 33.8608 39.2564C33.9673 38.9652 34.0206 38.6444 34.0206 38.294C34.0206 37.946 33.9673 37.6264 33.8608 37.3352C33.7566 37.0417 33.5956 36.8061 33.3778 36.6286C33.16 36.451 32.8854 36.3622 32.554 36.3622C32.2202 36.3622 31.9432 36.451 31.723 36.6286C31.5052 36.8061 31.343 37.0417 31.2365 37.3352C31.1323 37.6264 31.0803 37.946 31.0803 38.294C31.0803 38.6444 31.1323 38.9652 31.2365 39.2564C31.343 39.5476 31.5052 39.7808 31.723 39.956C31.9432 40.1312 32.2202 40.2188 32.554 40.2188ZM38.8741 35.5455V36.3977H35.7917V35.5455H38.8741ZM36.6369 41V34.9134C36.6369 34.5724 36.7115 34.2895 36.8606 34.0646C37.0098 33.8374 37.2074 33.6681 37.4537 33.5568C37.6999 33.4432 37.9674 33.3864 38.2562 33.3864C38.4693 33.3864 38.6516 33.4041 38.8031 33.4396C38.9546 33.4728 39.0671 33.5036 39.1404 33.532L38.8919 34.3913C38.8422 34.3771 38.7782 34.3606 38.7001 34.3416C38.622 34.3203 38.5273 34.3097 38.416 34.3097C38.158 34.3097 37.9733 34.3736 37.862 34.5014C37.7531 34.6293 37.6987 34.8139 37.6987 35.0554V41H36.6369ZM39.9696 41V35.5455H41.0314V41H39.9696ZM40.5059 34.7038C40.3212 34.7038 40.1626 34.6423 40.03 34.5192C39.8998 34.3937 39.8347 34.2446 39.8347 34.0717C39.8347 33.8965 39.8998 33.7474 40.03 33.6243C40.1626 33.4988 40.3212 33.4361 40.5059 33.4361C40.6905 33.4361 40.848 33.4988 40.9782 33.6243C41.1107 33.7474 41.177 33.8965 41.177 34.0717C41.177 34.2446 41.1107 34.3937 40.9782 34.5192C40.848 34.6423 40.6905 34.7038 40.5059 34.7038ZM43.5217 33.7273V41H42.4599V33.7273H43.5217ZM47.301 41.1101C46.7636 41.1101 46.3007 40.9953 45.9125 40.7656C45.5266 40.5336 45.2283 40.2081 45.0176 39.7891C44.8092 39.3677 44.7051 38.8741 44.7051 38.3082C44.7051 37.7495 44.8092 37.2571 45.0176 36.831C45.2283 36.4048 45.5218 36.0722 45.8983 35.8331C46.277 35.594 46.7198 35.4744 47.2264 35.4744C47.5342 35.4744 47.8324 35.5253 48.1213 35.6271C48.4101 35.7289 48.6693 35.8887 48.899 36.1065C49.1286 36.3243 49.3097 36.6072 49.4423 36.9553C49.5749 37.3009 49.6412 37.7211 49.6412 38.2159V38.5923H45.3052V37.7969H48.6007C48.6007 37.5175 48.5439 37.2701 48.4302 37.0547C48.3166 36.8369 48.1568 36.6652 47.9508 36.5398C47.7472 36.4143 47.5081 36.3516 47.2335 36.3516C46.9352 36.3516 46.6748 36.425 46.4522 36.5717C46.2321 36.7161 46.0616 36.9055 45.9409 37.1399C45.8225 37.3719 45.7633 37.6241 45.7633 37.8963V38.5178C45.7633 38.8823 45.8272 39.1925 45.9551 39.4482C46.0853 39.7038 46.2664 39.8991 46.4984 40.0341C46.7304 40.1667 47.0015 40.233 47.3116 40.233C47.5128 40.233 47.6963 40.2045 47.862 40.1477C48.0278 40.0885 48.171 40.0009 48.2917 39.8849C48.4125 39.7689 48.5048 39.6257 48.5687 39.4553L49.5737 39.6364C49.4932 39.9323 49.3488 40.1915 49.1404 40.4141C48.9345 40.6342 48.6752 40.8059 48.3627 40.929C48.0526 41.0497 47.6987 41.1101 47.301 41.1101Z" fill="#5B6B61"/>
</svg>
