<svg width="48" height="48" viewBox="0 0 48 48" fill="none" xmlns="http://www.w3.org/2000/svg">
<rect width="48" height="48" rx="24" fill="#FFEBEE"/>
<g clip-path="url(#clip0_116_189)">
<path d="M23.9994 31.334H24.0086M20.7908 28.0605C21.6477 27.2207 22.7996 26.7503 23.9994 26.7503C25.1992 26.7503 26.3512 27.2207 27.208 28.0605M17.5823 24.7875C18.8822 23.5131 20.5321 22.6546 22.3218 22.3214M30.4168 24.7875C29.8648 24.2464 29.2466 23.7772 28.5769 23.3913M14.832 21.0846C15.9657 20.0707 17.2596 19.252 18.6613 18.6616M33.1668 21.0852C31.7685 19.8346 30.1291 18.8833 28.3495 18.2899C26.5698 17.6965 24.6876 17.4735 22.8186 17.6346M14.832 14.8326L33.1668 33.1674" stroke="#D32F2F" stroke-width="2" stroke-linecap="round"/>
</g>
<defs>
<clipPath id="clip0_116_189">
<rect width="22" height="22" fill="white" transform="translate(13 13)"/>
</clipPath>
</defs>
</svg>
